<mxfile host="app.diagrams.net" modified="2023-06-26T08:49:42.806Z" agent="Mozilla/5.0 (Macintosh; Intel Mac OS X 10_15_7) AppleWebKit/537.36 (KHTML, like Gecko) Chrome/114.0.0.0 Safari/537.36" etag="UVC4VqwPseJgNUrx0v3_" version="21.5.0" type="github">
  <diagram id="C5RBs43oDa-KdzZeNtuy" name="Page-1">
    <mxGraphModel dx="1251" dy="754" grid="1" gridSize="10" guides="1" tooltips="1" connect="1" arrows="1" fold="1" page="1" pageScale="1" pageWidth="827" pageHeight="1169" math="0" shadow="0">
      <root>
        <mxCell id="WIyWlLk6GJQsqaUBKTNV-0" />
        <mxCell id="WIyWlLk6GJQsqaUBKTNV-1" parent="WIyWlLk6GJQsqaUBKTNV-0" />
        <mxCell id="snplcgEDY0etAvSyCJUB-3" value="" style="edgeStyle=orthogonalEdgeStyle;rounded=0;orthogonalLoop=1;jettySize=auto;html=1;entryX=0.5;entryY=0;entryDx=0;entryDy=0;" edge="1" parent="WIyWlLk6GJQsqaUBKTNV-1" source="snplcgEDY0etAvSyCJUB-0" target="snplcgEDY0etAvSyCJUB-4">
          <mxGeometry relative="1" as="geometry">
            <mxPoint x="181.5" y="210" as="targetPoint" />
          </mxGeometry>
        </mxCell>
        <mxCell id="snplcgEDY0etAvSyCJUB-0" value="开始&lt;br&gt;DumpHbaseTask" style="rounded=1;whiteSpace=wrap;html=1;" vertex="1" parent="WIyWlLk6GJQsqaUBKTNV-1">
          <mxGeometry x="131" y="140" width="100" height="40" as="geometry" />
        </mxCell>
        <mxCell id="snplcgEDY0etAvSyCJUB-7" value="" style="edgeStyle=orthogonalEdgeStyle;rounded=0;orthogonalLoop=1;jettySize=auto;html=1;" edge="1" parent="WIyWlLk6GJQsqaUBKTNV-1" source="snplcgEDY0etAvSyCJUB-4" target="snplcgEDY0etAvSyCJUB-6">
          <mxGeometry relative="1" as="geometry" />
        </mxCell>
        <mxCell id="snplcgEDY0etAvSyCJUB-4" value="init" style="rounded=0;whiteSpace=wrap;html=1;" vertex="1" parent="WIyWlLk6GJQsqaUBKTNV-1">
          <mxGeometry x="145.5" y="200" width="70" height="30" as="geometry" />
        </mxCell>
        <mxCell id="snplcgEDY0etAvSyCJUB-9" value="" style="edgeStyle=orthogonalEdgeStyle;rounded=0;orthogonalLoop=1;jettySize=auto;html=1;" edge="1" parent="WIyWlLk6GJQsqaUBKTNV-1" source="snplcgEDY0etAvSyCJUB-6" target="snplcgEDY0etAvSyCJUB-8">
          <mxGeometry relative="1" as="geometry" />
        </mxCell>
        <mxCell id="snplcgEDY0etAvSyCJUB-6" value="scanAndDump()" style="whiteSpace=wrap;html=1;rounded=0;" vertex="1" parent="WIyWlLk6GJQsqaUBKTNV-1">
          <mxGeometry x="130" y="250" width="101" height="40" as="geometry" />
        </mxCell>
        <mxCell id="snplcgEDY0etAvSyCJUB-11" value="" style="edgeStyle=orthogonalEdgeStyle;rounded=0;orthogonalLoop=1;jettySize=auto;html=1;" edge="1" parent="WIyWlLk6GJQsqaUBKTNV-1" source="snplcgEDY0etAvSyCJUB-8" target="snplcgEDY0etAvSyCJUB-10">
          <mxGeometry relative="1" as="geometry" />
        </mxCell>
        <mxCell id="snplcgEDY0etAvSyCJUB-13" value="" style="edgeStyle=orthogonalEdgeStyle;rounded=0;orthogonalLoop=1;jettySize=auto;html=1;" edge="1" parent="WIyWlLk6GJQsqaUBKTNV-1" source="snplcgEDY0etAvSyCJUB-8" target="snplcgEDY0etAvSyCJUB-12">
          <mxGeometry relative="1" as="geometry" />
        </mxCell>
        <mxCell id="snplcgEDY0etAvSyCJUB-8" value="dumpWhileScan" style="rhombus;whiteSpace=wrap;html=1;rounded=0;" vertex="1" parent="WIyWlLk6GJQsqaUBKTNV-1">
          <mxGeometry x="120" y="320" width="121" height="40" as="geometry" />
        </mxCell>
        <mxCell id="snplcgEDY0etAvSyCJUB-18" style="edgeStyle=orthogonalEdgeStyle;rounded=0;orthogonalLoop=1;jettySize=auto;html=1;exitX=0.5;exitY=1;exitDx=0;exitDy=0;entryX=0.5;entryY=0;entryDx=0;entryDy=0;" edge="1" parent="WIyWlLk6GJQsqaUBKTNV-1" source="snplcgEDY0etAvSyCJUB-10" target="snplcgEDY0etAvSyCJUB-17">
          <mxGeometry relative="1" as="geometry" />
        </mxCell>
        <mxCell id="snplcgEDY0etAvSyCJUB-10" value="done" style="whiteSpace=wrap;html=1;rounded=0;" vertex="1" parent="WIyWlLk6GJQsqaUBKTNV-1">
          <mxGeometry x="145.5" y="400" width="71" height="30" as="geometry" />
        </mxCell>
        <mxCell id="snplcgEDY0etAvSyCJUB-16" style="edgeStyle=orthogonalEdgeStyle;rounded=0;orthogonalLoop=1;jettySize=auto;html=1;exitX=0.5;exitY=1;exitDx=0;exitDy=0;" edge="1" parent="WIyWlLk6GJQsqaUBKTNV-1" source="snplcgEDY0etAvSyCJUB-12" target="snplcgEDY0etAvSyCJUB-10">
          <mxGeometry relative="1" as="geometry" />
        </mxCell>
        <mxCell id="snplcgEDY0etAvSyCJUB-12" value="rename&lt;br&gt;addFileToIndex" style="whiteSpace=wrap;html=1;rounded=0;" vertex="1" parent="WIyWlLk6GJQsqaUBKTNV-1">
          <mxGeometry x="261.5" y="320" width="100" height="40" as="geometry" />
        </mxCell>
        <mxCell id="snplcgEDY0etAvSyCJUB-17" value="结束" style="rounded=1;whiteSpace=wrap;html=1;" vertex="1" parent="WIyWlLk6GJQsqaUBKTNV-1">
          <mxGeometry x="145.5" y="460" width="70" height="30" as="geometry" />
        </mxCell>
      </root>
    </mxGraphModel>
  </diagram>
</mxfile>
